<svg width="145" height="41" viewBox="0 0 145 41" fill="none" xmlns="http://www.w3.org/2000/svg">
    <path fill-rule="evenodd" clip-rule="evenodd" d="M23.38 12.49c0 6.406-5.233 11.598-11.69 11.598S0 18.896 0 12.49C0 6.084 5.233.89 11.69.89S23.38 6.084 23.38 12.49z" fill="#4E3C2E"/>
    <path fill-rule="evenodd" clip-rule="evenodd" d="M6.501 19.383a8.932 8.932 0 0 1-1.398-1.714l-.168-.276-.059-.1c-.22-.383-.33-.627-.332-.627.002 0-.125-.296-.255-.709a8.433 8.433 0 0 1-.318-1.382c-.114-.744-.052-.98.037-.919.095.06.238.409.408.824-.003-.047.177.46.404.954.226.496.504.972.506.972l.077.152.096.18.061.11.103.173c.37.622.886 1.329 1.607 1.96a6.66 6.66 0 0 0 2.734 1.445c.54.14 1.114.222 1.703.243.584.017 1.199-.007 1.8-.07 4.725-.664 6.488-4.69 6.719-7.687.011-.163.018-.304.02-.434-2.057 1.33-7.39 1.376-8.103 1.376-.182 0-.356 0-.523-.006-.313-.007-6.842-.18-8.711-1.774-.017.21-.02.48.008.838.175 2.292 1.252 5.18 3.854 6.714a7.096 7.096 0 0 1-.27-.243z" fill="#FDD301"/>
    <path fill-rule="evenodd" clip-rule="evenodd" d="M19.002 10.366c3.68 1.5-2.777 2.732-7.454 2.623-4.61-.105-11.04-1.381-7.191-2.695l14.645.072z" fill="#FDD301"/>
    <path fill-rule="evenodd" clip-rule="evenodd" d="M19.27 11.986c-.275-4.18-3.585-7.485-7.64-7.485-4 0-7.281 3.22-7.63 7.324 1.514.638 4.84 1.102 7.543 1.164 2.782.065 6.193-.344 7.728-1.003z" fill="#FCFADF"/>
    <mask id="amocrbrrea" style="mask-type:alpha" maskUnits="userSpaceOnUse" x="34" y="25" width="51" height="16">
        <path fill-rule="evenodd" clip-rule="evenodd" d="M34.212 25.858H84.02V41H34.212V25.858z" fill="#fff"/>
    </mask>
    <g mask="url(#amocrbrrea)">
        <path fill-rule="evenodd" clip-rule="evenodd" d="M58.475 41c-.43 0-.859-.01-1.288-.024-9.472-.383-17.73-4.82-22.655-12.178a1.883 1.883 0 0 1 .531-2.624 1.914 1.914 0 0 1 2.643.53c4.244 6.334 11.4 10.159 19.633 10.488 8.997.358 17.707-3.603 23.276-10.614a1.919 1.919 0 0 1 2.678-.313c.827.647.969 1.835.317 2.656-6.058 7.623-15.378 12.08-25.135 12.08z" fill="#E34F26"/>
    </g>
    <path fill-rule="evenodd" clip-rule="evenodd" d="M97.137 23.937c-.476 0-.953-.18-1.318-.542l-5.806-5.76h-.001l-.017-.019a3.35 3.35 0 0 1-.982-2.373c0-1.487.963-2.783 2.393-3.227.025-.007.047-.015.071-.021a4.247 4.247 0 0 0 2.856-4.022c0-2.356-1.93-4.272-4.305-4.272h-5.156a1.858 1.858 0 0 1-1.864 1.782 1.858 1.858 0 0 1-1.865-1.85V1.85c0-1.022.835-1.85 1.865-1.85h7.02c4.432 0 8.037 3.576 8.037 7.973 0 3.303-2.006 6.202-5.053 7.403l5.445 5.403a1.84 1.84 0 0 1 0 2.616 1.87 1.87 0 0 1-1.32.542z" fill="#E34F26"/>
    <path fill-rule="evenodd" clip-rule="evenodd" d="M82.939 23.96a1.904 1.904 0 0 1-1.912-1.897v-7.356c0-3.01-2.469-5.458-5.502-5.458-3.035 0-5.504 2.448-5.504 5.458v7.356a1.904 1.904 0 0 1-1.911 1.897 1.904 1.904 0 0 1-1.912-1.897v-7.356c0-5.101 4.183-9.25 9.327-9.25 5.14 0 9.325 4.149 9.325 9.25v7.356a1.904 1.904 0 0 1-1.911 1.897zM34.891 20.167c-3.035 0-5.502-2.45-5.502-5.46S31.856 9.25 34.89 9.25c3.035 0 5.503 2.448 5.503 5.459 0 3.01-2.468 5.459-5.503 5.459zm0-14.71c-5.141 0-9.326 4.15-9.326 9.25v13.505c0 1.048.855 1.897 1.912 1.897a1.904 1.904 0 0 0 1.912-1.897V22.16a9.31 9.31 0 0 0 5.502 1.8c5.142 0 9.327-4.15 9.327-9.252 0-5.101-4.185-9.252-9.327-9.252zM51.35 10.846c1.67-1.655 4.151-2.017 6.183-1.095l-7.288 7.232a5.436 5.436 0 0 1 1.105-6.137zm11.546 3.962a1.912 1.912 0 0 0-2.345 1.335 5.45 5.45 0 0 1-1.419 2.427c-1.669 1.655-4.153 2.015-6.184 1.095l8.886-8.816.001-.003c.745-.74.745-1.94 0-2.681-3.637-3.607-9.552-3.609-13.188 0a9.215 9.215 0 0 0 0 13.088 9.332 9.332 0 0 0 6.592 2.703c2.39 0 4.778-.902 6.596-2.705a9.264 9.264 0 0 0 2.407-4.116 1.898 1.898 0 0 0-1.346-2.327z" fill="#4E3C2E"/>
    <path fill-rule="evenodd" clip-rule="evenodd" d="M105.833 6.733a2.28 2.28 0 0 1-2.289 2.27 2.279 2.279 0 0 1-2.288-2.27 2.28 2.28 0 0 1 2.288-2.271 2.281 2.281 0 0 1 2.289 2.27z" fill="#E34F26"/>
    <mask id="zw58yv4rhb" style="mask-type:alpha" maskUnits="userSpaceOnUse" x="126" y="5" width="19" height="19">
        <path fill-rule="evenodd" clip-rule="evenodd" d="M126.611 5.459H145v18.497h-18.389V5.46z" fill="#fff"/>
    </mask>
    <g mask="url(#zw58yv4rhb)">
        <path fill-rule="evenodd" clip-rule="evenodd" d="M132.04 10.846c1.671-1.656 4.153-2.018 6.184-1.096l-7.287 7.233a5.436 5.436 0 0 1 1.103-6.137zm11.548 3.962a1.915 1.915 0 0 0-2.346 1.335 5.45 5.45 0 0 1-1.418 2.427c-1.671 1.655-4.153 2.016-6.186 1.095l8.889-8.819a1.884 1.884 0 0 0 0-2.681c-3.634-3.608-9.553-3.608-13.189 0a9.214 9.214 0 0 0 0 13.087 9.33 9.33 0 0 0 6.593 2.704 9.348 9.348 0 0 0 6.598-2.706 9.26 9.26 0 0 0 2.404-4.115 1.896 1.896 0 0 0-1.345-2.327z" fill="#E34F26"/>
    </g>
    <path fill-rule="evenodd" clip-rule="evenodd" d="M103.544 23.96a1.903 1.903 0 0 1-1.912-1.897v-9.77c0-1.047.855-1.896 1.912-1.896 1.056 0 1.911.849 1.911 1.897v9.77a1.903 1.903 0 0 1-1.911 1.896zM116.865 23.96c-5.143 0-9.326-4.15-9.326-9.253 0-5.101 4.183-9.25 9.326-9.25a9.352 9.352 0 0 1 8.158 4.768 1.89 1.89 0 0 1-.743 2.579 1.92 1.92 0 0 1-2.601-.738 5.513 5.513 0 0 0-4.814-2.817c-3.033 0-5.504 2.448-5.504 5.458 0 3.01 2.471 5.46 5.504 5.46a5.517 5.517 0 0 0 4.814-2.816 1.922 1.922 0 0 1 2.601-.739 1.89 1.89 0 0 1 .743 2.578 9.348 9.348 0 0 1-8.158 4.77z" fill="#E34F26"/>
    <path fill-rule="evenodd" clip-rule="evenodd" d="m119.111 27.831 1.78 1.767c.262.259.686.259.946 0a.658.658 0 0 0 0-.937s-2.251-2.236-2.252-2.239a.674.674 0 0 0-.949 0l-3.124 3.104a.66.66 0 0 0 0 .939.673.673 0 0 0 .945 0l2.654-2.634z" fill="#4E3C2E"/>
    <path fill-rule="evenodd" clip-rule="evenodd" d="M119.106 31.771c.239 0 .462.063.663.163l-1.978 1.963a1.415 1.415 0 0 1-.164-.657c0-.811.664-1.469 1.479-1.469zm0 2.936c-.238 0-.463-.063-.662-.163l1.979-1.962c.102.199.163.42.163.658 0 .81-.663 1.467-1.48 1.467zm0 1.355c1.571 0 2.846-1.264 2.846-2.822 0-1.443-1.096-2.62-2.504-2.789a.772.772 0 0 0 .411-.672.788.788 0 0 0-1.577 0c0 .297.176.547.423.679-1.381.195-2.444 1.36-2.444 2.782v3.31a2.875 2.875 0 0 0 4.201 2.544l.202.389a.615.615 0 0 0 1.091-.566l-.978-1.89a.62.62 0 0 0-.832-.258.61.61 0 0 0-.258.825l.155.297c-.217.111-.453.181-.699.181a1.53 1.53 0 0 1-1.534-1.523l-.01-.924a2.84 2.84 0 0 0 1.507.437zM141.97 35.105a.607.607 0 0 1-.61.605.61.61 0 0 1-.612-.605v-6.146a.61.61 0 0 1 .612-.605c.337 0 .61.27.61.605v6.146zM144.047 39.113a.699.699 0 0 1-.701.696.698.698 0 0 1-.701-.696V27.25c0-.384.313-.695.701-.695.387 0 .701.31.701.695v11.863zM133.407 29.057a.459.459 0 0 0-.919 0v6.056c0 .253.203.458.458.458a.458.458 0 0 0 .461-.458v-6.056zm1.282 6.072c0 .954-.781 1.727-1.743 1.727-.96 0-1.74-.773-1.74-1.727v-5.975c0-.955.78-1.729 1.74-1.729.962 0 1.743.774 1.743 1.729v5.975zM141.58 37.745l-1.703-1.69a.68.68 0 0 0-.959 0 .668.668 0 0 0 0 .952l1.703 1.688a.682.682 0 0 0 .96 0 .67.67 0 0 0-.001-.95z" fill="#4E3C2E"/>
    <path fill-rule="evenodd" clip-rule="evenodd" d="M136.231 31.737c0-.561.337-1.04.818-1.263v3.734a1.393 1.393 0 0 1-.818-1.263v-1.208zm2.811 0v1.208c0 .541-.317 1.007-.771 1.239V30.5c.454.23.771.695.771 1.237zm1.356 1.208v-1.208c0-1.294-.912-2.374-2.127-2.66V28.7h1.374c.37 0 .668-.298.668-.663a.666.666 0 0 0-.668-.665h-1.374v-.647a.608.608 0 0 0-.61-.607.61.61 0 0 0-.612.607v.647h-1.425a.667.667 0 0 0-.668.665c0 .365.299.663.668.663h1.425v.363c-1.239.268-2.173 1.363-2.173 2.674v1.208a2.73 2.73 0 0 0 1.34 2.338l-3.146 3.12a.672.672 0 0 0 .48 1.148.684.684 0 0 0 .48-.197l3.019-2.996v2.967a.61.61 0 0 0 .612.606c.337 0 .61-.272.61-.606v-3.72c1.215-.285 2.127-1.367 2.127-2.66zM102.555 28.374a.55.55 0 0 1 .552-.548h1.951a.55.55 0 0 1 .552.548v.721h-3.06v-.721h.005zm3.055 2.338a.551.551 0 0 1-.552.547l-2.508.005v-1.151h3.06v.599zm-.553 1.815c.999 0 1.808-.795 1.828-1.783l.002-2.37a1.823 1.823 0 0 0-1.83-1.816h-1.95c-1.01 0-1.83.813-1.83 1.816v10.572c0 .35.286.632.638.632a.633.633 0 0 0 .635-.632v-6.419h2.507z" fill="#4E3C2E"/>
    <path fill-rule="evenodd" clip-rule="evenodd" d="M106.56 35.56c-.004-.004-.008-.005-.013-.008v-1.12h1.395v1.127h-1.382zm3.567 0h-.913v-1.128h.604a.632.632 0 0 0 .637-.631.633.633 0 0 0-.637-.631h-5.222a.634.634 0 0 0-.637.63c0 .35.285.632.637.632h.679v1.127h-.987a.633.633 0 0 0-.637.63c0 .35.284.633.637.633h.837l-.644 1.622a.63.63 0 0 0 .359.82.64.64 0 0 0 .826-.358l.826-2.084h1.45v2.123c0 .35.285.633.637.633a.633.633 0 0 0 .635-.633v-2.123h.913a.634.634 0 0 0 .637-.632.633.633 0 0 0-.637-.63z" fill="#4E3C2E"/>
    <path fill-rule="evenodd" clip-rule="evenodd" d="M111.852 29.095h-3.06v-.721a.55.55 0 0 1 .553-.548h1.95a.55.55 0 0 1 .552.547l.005.722zm-2.507 2.17v-.006a.55.55 0 0 1-.551-.548h-.002v-.598h3.06v1.151h-2.507zm1.95-4.707h-1.95c-1.01 0-1.83.813-1.83 1.816l.003 2.37a1.823 1.823 0 0 0 1.827 1.783h2.507v6.418c0 .35.286.632.636.632a.633.633 0 0 0 .637-.632V28.373c0-1.003-.82-1.815-1.83-1.815zM123.805 37.698v-2.325l.002-.698c.121.211.259.413.441.594l1.003.994-1.446 1.435zm1.401-5.369a1.427 1.427 0 0 1 2.004 0c.551.548.551 1.44 0 1.988l-1 .995-1.002-.995a1.398 1.398 0 0 1-.002-1.988zm4.086 6.04-2.124-2.106 1.009-1.004a2.742 2.742 0 0 0-.009-3.882 2.792 2.792 0 0 0-3.92 0 2.675 2.675 0 0 0-.433.582v-.515c0-1.663 1.364-3.015 3.04-3.015l1.411-.01a.665.665 0 0 0 .669-.661.665.665 0 0 0-.669-.665l-1.411-.01c-2.341 0-4.254 1.826-4.384 4.117h-.003v7.479c0 .514.421.932.939.932.26 0 .494-.105.664-.273l2.139-2.124 2.124 2.107a.672.672 0 0 0 .478.197.67.67 0 0 0 .48-1.148z" fill="#4E3C2E"/>
    <path fill-rule="evenodd" clip-rule="evenodd" d="M18.937 13.057c.162 1.776-.172 4.968-2.774 6.696 3.195-1.505 4.111-5.58 4.124-7.301-.36.24-.823.44-1.35.605z" fill="#FEFEFE"/>
</svg>
