<?xml version="1.0" encoding="UTF-8"?>
<svg width="22px" height="21px" viewBox="0 0 22 21" version="1.1" xmlns="http://www.w3.org/2000/svg" xmlns:xlink="http://www.w3.org/1999/xlink">
    <!-- Generator: sketchtool 44 (41411) - http://www.bohemiancoding.com/sketch -->
    <title>D3945607-D1E3-4787-A39B-47154F3A9E6C</title>
    <desc>Created with sketchtool.</desc>
    <defs>
        <polygon id="path-1" points="21.0865828 20.8141593 0 20.8141593 0 0.151720354 21.0865828 0.151720354"></polygon>
    </defs>
    <g id="Symbols" stroke="none" stroke-width="1" fill="none" fill-rule="evenodd">
        <g id="sliced-/-common_icon_cry">
            <g id="-g-common_icon_cry">
                <g id="-g-cry">
                    <path d="M20.9917172,10.5171345 C20.9917172,16.1717097 16.3138724,20.7554708 10.5432345,20.7554708 C4.77259655,20.7554708 0.0947517241,16.1717097 0.0947517241,10.5171345 C0.0947517241,4.86237345 4.77259655,0.27879823 10.5432345,0.27879823 C16.3138724,0.27879823 20.9917172,4.86237345 20.9917172,10.5171345" id="Fill-1" fill="#FFDA01"></path>
                    <g id="Group-5" transform="translate(0.000000, 0.034195)">
                        <mask id="mask-2" fill="white">
                            <use xlink:href="#path-1"></use>
                        </mask>
                        <g id="Clip-4"></g>
                        <path d="M10.5432724,0.337561062 C4.83427241,0.337561062 0.189617241,4.8888 0.189617241,10.482977 C0.189617241,16.0769681 4.83427241,20.6283929 10.5432724,20.6283929 C16.2522724,20.6283929 20.8969276,16.0769681 20.8969276,10.482977 C20.8969276,4.8888 16.2522724,0.337561062 10.5432724,0.337561062 M10.5432724,20.8142336 C4.72977241,20.8142336 -3.79310345e-05,16.1795522 -3.79310345e-05,10.482977 C-3.79310345e-05,4.78621593 4.72977241,0.151720354 10.5432724,0.151720354 C16.3567724,0.151720354 21.0865828,4.78621593 21.0865828,10.482977 C21.0865828,16.1795522 16.3567724,20.8142336 10.5432724,20.8142336" id="Fill-3" fill="#FAAF40" mask="url(#mask-2)"></path>
                    </g>
                    <g id="Group-8" transform="translate(16.689655, 7.653664)" fill="#26A9E0">
                        <path d="M0.265403448,6.80059912 C0.421868966,8.26929823 1.65216207,9.29439558 3.01331724,9.08811239 C4.37428276,8.88257257 5.36314483,7.62164336 5.11033448,6.16465221 C4.93224828,5.14122743 4.2180069,3.79183805 3.39566207,2.81338673 C2.68748966,1.97059912 1.60664483,0.905731858 1.07769655,0.566944248 C0.590093103,0.255289381 0.147437931,0.154749558 0.147437931,0.154749558 C0.147437931,0.154749558 2.0640931,2.49058142 1.25198966,4.35363451 C0.681696552,5.66436903 0.181386207,6.01412124 0.265403448,6.80059912" id="Fill-6"></path>
                    </g>
                    <path d="M20.808169,12.9925885 C20.6932379,12.8861018 20.7884448,13.488969 20.6689621,14.2735885 C20.5671172,14.9442876 20.5138241,15.2760133 20.6126345,15.419854 C20.6998759,15.5456681 20.9414966,15.5406504 21.0740655,15.4579513 C21.6638931,15.0924027 21.4291,13.4373053 20.808169,12.9925885" id="Fill-9" fill="#FFFFFF"></path>
                    <path d="M3.60936552,8.17615487 C3.53065862,8.17225221 3.4584,8.16370354 3.3941069,8.15013717 L3.62965862,7.07040265 C3.89176207,7.12225221 4.65815862,6.96075664 5.46495172,6.71693363 C6.17862414,6.50154425 6.9234,6.2214823 7.37876207,5.96985398 L7.74271034,6.93250885 C7.30043448,7.17670354 6.68272759,7.5015531 5.84862414,7.75894248 C5.01433103,8.01614602 4.15462414,8.20496018 3.60936552,8.17615487" id="Fill-11" fill="#4E3C2D"></path>
                    <path d="M17.4769897,8.17615487 C17.5558862,8.17225221 17.6281448,8.16370354 17.6924379,8.15013717 L17.4568862,7.07040265 C17.1947828,7.12225221 16.4283862,6.96075664 15.6215931,6.71693363 C14.9079207,6.50154425 14.1631448,6.2214823 13.7077828,5.96985398 L13.3438345,6.93250885 C13.7861103,7.17670354 14.4038172,7.5015531 15.2379207,7.75894248 C16.0722138,8.01614602 16.931731,8.20496018 17.4769897,8.17615487" id="Fill-13" fill="#4E3C2D"></path>
                    <path d="M5.41406724,15.7820204 C6.10289483,14.4943301 9.28701552,13.878454 12.7522052,14.4164628 C13.9946362,14.6093655 15.1240328,14.9264097 16.05505,15.3179761 C15.2742397,14.6286929 14.1715845,14.0243389 12.8623948,13.6372327 C9.67770517,12.6963212 6.48505,13.3947106 5.55630862,15.0061354 C5.36987759,15.3294982 5.29610172,15.6714451 5.32037759,16.0187814 C5.3427569,15.9373832 5.37329138,15.858215 5.41406724,15.7820204" id="Fill-15" fill="#4E3C2D"></path>
                </g>
            </g>
        </g>
    </g>
</svg>