<svg width="32" height="39" viewBox="0 0 32 39" xmlns="http://www.w3.org/2000/svg" xmlns:xlink="http://www.w3.org/1999/xlink">
    <defs>
        <path d="m2.783.909 25.26.344-2.835 26.955a2 2 0 0 1-2.118 1.786l-21.021-1.36a2 2 0 0 1-1.861-2.196L2.783.909z" id="a4naimi95a"/>
        <path d="m2.34.72 23.578 1.195a1 1 0 0 1 .943 1.112l-.512 4.503a1 1 0 0 1-1.04.886L1.545 7.306a1 1 0 0 1-.942-1.15L1.3 1.57A1 1 0 0 1 2.34.721z" id="pe2o3zmec"/>
        <path d="M.547.5s.911 1.119 2.167 1.688c1.256.57 2.919 1.198 5.05.008a.421.421 0 0 1 .55.13.354.354 0 0 1-.127.51 5.6 5.6 0 0 1-3.682.608C3.03 3.189 1.662 2.368.813 1.077.697.9.547.5.547.5z" id="9rxlbty2ae"/>
        <path d="M3.193.457a2.494 2.494 0 0 1 2.356 2.628 2.499 2.499 0 0 1-2.643 2.343A2.494 2.494 0 0 1 .55 2.8 2.498 2.498 0 0 1 3.193.457z" id="2x9kui32og"/>
        <path d="M3.203.277c.716.041 1.374.357 1.85.889.478.532.717 1.217.676 1.93a2.645 2.645 0 0 1-.893 1.839 2.675 2.675 0 0 1-1.94.672A2.678 2.678 0 0 1 .37 2.789C.454 1.32 1.73.195 3.203.277zm-.155.355A2.321 2.321 0 0 0 .73 2.81a2.317 2.317 0 0 0 2.186 2.438 2.315 2.315 0 0 0 1.68-.581 2.29 2.29 0 0 0 .773-1.592 2.287 2.287 0 0 0-.585-1.67A2.312 2.312 0 0 0 3.048.632z" id="zlah16v2li"/>
        <path d="M1.375.832a1.181 1.181 0 0 1 1.116 1.244 1.183 1.183 0 0 1-1.252 1.109A1.18 1.18 0 0 1 .123 1.941 1.183 1.183 0 0 1 1.375.831z" id="ni9kw1fvhk"/>
        <path d="M2.988.253A2.028 2.028 0 0 1 4.904 2.39a2.03 2.03 0 0 1-2.149 1.904A2.027 2.027 0 0 1 .839 2.158 2.031 2.031 0 0 1 2.99.253z" id="2q8h7kx4vm"/>
        <path d="M2.998.074A2.21 2.21 0 0 1 5.084 2.4a2.18 2.18 0 0 1-.738 1.518 2.205 2.205 0 0 1-1.601.555A2.207 2.207 0 0 1 .659 2.148a2.184 2.184 0 0 1 .738-1.52A2.224 2.224 0 0 1 2.998.075zM2.87.429a1.847 1.847 0 0 0-1.85 1.74 1.85 1.85 0 0 0 1.745 1.946c.498.028.972-.137 1.342-.465.37-.327.589-.779.617-1.27a1.826 1.826 0 0 0-.467-1.334A1.846 1.846 0 0 0 2.869.43z" id="xmpbfvdbjo"/>
        <path d="M1.337.543c.536.03.945.487.914 1.02a.969.969 0 0 1-1.025.908.968.968 0 0 1-.914-1.02.969.969 0 0 1 1.025-.908z" id="oupa0hzkwq"/>
        <path d="M4.725.727c.787.546 1.025 1.791.384 2.682C3.834 5.183.593 5.301.593 5.301s.942-.7 1.162-1.726c.22-1.027.198-1.646.506-2.146C2.834.494 3.938.18 4.725.727z" id="wkyzud4mls"/>
        <path d="M4.41.56c.11.042.215.097.315.167.787.546 1.025 1.791.384 2.682-.375.523-.922.9-1.505 1.175-.765.32-1.6.52-2.246.638-.46.067-.765.078-.765.078.187-.02 2.4-.305 3.444-2.85C4.494 1.335 4.48.8 4.41.56z" id="bo7szo6f7u"/>
    </defs>
    <g fill="none" fill-rule="evenodd">
        <path d="m25.012 35.432 5.073-4.25a3 3 0 0 0 1.06-2.587L28.806 4.3 22.58 33.974a1.5 1.5 0 0 0 2.43 1.458z" fill="#F59706"/>
        <g transform="translate(.5 5.79)">
            <mask id="2zp8yq49cb" fill="#fff">
                <use xlink:href="#a4naimi95a"/>
            </mask>
            <use fill="#FDDF00" xlink:href="#a4naimi95a"/>
            <path d="m25.561.909 2.482.344-2.888 27.455a1.5 1.5 0 0 1-1.564 1.341L1.516 28.98A1.5 1.5 0 0 1 .092 27.39l.432-7.155c6.41-.912 11.646-3.146 15.708-6.702 4.062-3.557 7.172-7.764 9.33-12.624z" fill="#FAC50E" opacity=".5" mask="url(#2zp8yq49cb)"/>
            <path d="m26.904 12.084-1.749 16.624a1.5 1.5 0 0 1-1.564 1.341l-16.826-.816c5.638-1.605 10.059-3.77 13.262-6.499 3.204-2.728 5.496-6.278 6.877-10.65z" fill="#F0BD0D" mask="url(#2zp8yq49cb)"/>
            <path d="m3.157-2.831 25.295 1.294-.57 5.092a1.5 1.5 0 0 1-1.562 1.332L3.923 3.825a1.5 1.5 0 0 1-1.416-1.693l.65-4.963z" fill="#E7A807" mask="url(#2zp8yq49cb)"/>
        </g>
        <g transform="translate(1.97 1.3)">
            <mask id="jr8egrlo1d" fill="#fff">
                <use xlink:href="#pe2o3zmec"/>
            </mask>
            <use fill="#FFCF17" xlink:href="#pe2o3zmec"/>
            <path fill="#FFE376" mask="url(#jr8egrlo1d)" d="M0 .625 27.045 1.97V3.05L0 1.707z"/>
        </g>
        <path d="M14.251 12.249a9.14 9.14 0 0 1 6.858 3.053 9.033 9.033 0 0 1 2.313 6.596c-.278 4.824-4.3 8.603-9.157 8.603a9.142 9.142 0 0 1-6.86-3.053 9.035 9.035 0 0 1-2.312-6.596c.278-4.824 4.3-8.603 9.158-8.603z" fill="#4E3C2D"/>
        <path d="M14.25 13.465c-4.185 0-7.693 3.25-7.936 7.457-.251 4.362 3.1 8.1 7.488 8.35.155.01.31.013.463.013 4.186 0 7.694-3.25 7.937-7.457.25-4.361-3.101-8.1-7.489-8.35a7.992 7.992 0 0 0-.462-.013z" fill="#FFEC17"/>
        <g transform="translate(8.783 23.615)">
            <mask id="p73ifcdlqf" fill="#fff">
                <use xlink:href="#9rxlbty2ae"/>
            </mask>
            <path fill="#4E3C2D" mask="url(#p73ifcdlqf)" d="M-8.506-8.5h25.934v21.029H-8.506z"/>
        </g>
        <g transform="translate(7.878 16.415)">
            <mask id="9eozuw0pgh" fill="#fff">
                <use xlink:href="#2x9kui32og"/>
            </mask>
            <path fill="#4E3C2D" mask="url(#9eozuw0pgh)" d="M-8.507-8.548h23.113v22.98H-8.507z"/>
        </g>
        <g transform="translate(7.878 16.415)">
            <mask id="8ui2v4hlyj" fill="#fff">
                <use xlink:href="#zlah16v2li"/>
            </mask>
            <path fill="#FFF" mask="url(#8ui2v4hlyj)" d="M-8.688-8.727h23.475v23.338H-8.688z"/>
        </g>
        <g transform="translate(8.783 16.415)">
            <mask id="mrzbu0stzl" fill="#fff">
                <use xlink:href="#ni9kw1fvhk"/>
            </mask>
            <path fill="#FFF" mask="url(#mrzbu0stzl)" d="M-8.931-8.17h20.477v20.357H-8.931z"/>
        </g>
        <g transform="translate(15.12 17.315)">
            <mask id="elg6mq1s8n" fill="#fff">
                <use xlink:href="#2q8h7kx4vm"/>
            </mask>
            <path fill="#4E3C2D" mask="url(#elg6mq1s8n)" d="M-8.217-8.75H13.96v22.047H-8.217z"/>
        </g>
        <g transform="translate(15.12 17.315)">
            <mask id="d4vpsgdgtp" fill="#fff">
                <use xlink:href="#xmpbfvdbjo"/>
            </mask>
            <path fill="#FFF" mask="url(#d4vpsgdgtp)" d="M-8.398-8.93H14.14v22.407H-8.398z"/>
        </g>
        <g transform="translate(16.025 17.315)">
            <mask id="7hwihskd2r" fill="#fff">
                <use xlink:href="#oupa0hzkwq"/>
            </mask>
            <path fill="#FFF" mask="url(#7hwihskd2r)" d="M-8.743-8.459h20.049v19.931H-8.743z"/>
        </g>
        <g transform="translate(14.215 21.815)">
            <mask id="1dk0t4c2vt" fill="#fff">
                <use xlink:href="#wkyzud4mls"/>
            </mask>
            <path fill="#D74253" mask="url(#1dk0t4c2vt)" d="M-8.46-8.542h22.99v22.843H-8.46z"/>
        </g>
        <g transform="translate(14.215 21.815)">
            <mask id="x2uvulec3v" fill="#fff">
                <use xlink:href="#bo7szo6f7u"/>
            </mask>
            <path fill="#D12539" mask="url(#x2uvulec3v)" d="M-8.46-8.44h22.99V14.3H-8.46z"/>
        </g>
    </g>
</svg>
