<svg xmlns="http://www.w3.org/2000/svg" width="27" height="27" viewBox="0 0 27 27">
    <g fill="none" fill-rule="evenodd">
        <path fill="#FFF100" d="M14.8.806L1.998.529s-.489.129-.57.59c-.082.46-.262 1.598-.262 1.598s-.03.941.655.941c.897 0 12.362.333 12.362.333L14.8.806z" transform="translate(5 4)"/>
        <path fill="#FFF100" d="M1.959 3.575L.319 16.029c-.086.65.404 1.234 1.059 1.263l11.644.664c.592.026 1.013-.195 1.072-.785l1.295-14.233c.075-.76.686-2.2-1.258-2.252-.069-.002-.138.005-.205.02L1.96 3.576" transform="translate(5 4)"/>
        <path fill="#F37920" d="M13.975 17.47c-.037.47.374.465.503.332l3.211-3.436c.168-.169.065-.34.053-.404L15.536 1.885 13.975 17.47z" transform="translate(5 4)"/>
        <path fill="#4E3C2D" stroke="#4E3C2D" stroke-width=".2" d="M13.999 18.296c-.029 0-.057 0-.085-.003l-12.78-.745c-.338-.023-.65-.183-.862-.439-.209-.252-.302-.57-.263-.893L1.257 4.88c.021-.195.197-.335.39-.314.195.022.335.197.314.391L.713 16.297c-.016.133.021.26.105.361.09.108.217.173.36.183l12.78.745c.16.011.314-.05.419-.161l2.621-2.825c.189-.201.272-.47.229-.74l-1.95-12.293c-.037-.232-.242-.406-.487-.413l-1.353-.036L2.264.883h-.013c-.252 0-.466.176-.502.413l-.23 1.475c-.021.133.016.265.103.371.092.112.23.18.378.185l11.616.324c.195.006.35.168.344.364-.006.196-.165.35-.364.344l-11.62-.324c-.353-.013-.68-.175-.901-.443-.215-.26-.308-.6-.256-.93l.23-1.475C1.139.595 1.669.16 2.28.175L13.454.41l1.356.037c.586.017 1.076.442 1.166 1.01l1.95 12.293c.078.485-.07.972-.409 1.334l-2.622 2.824c-.232.25-.555.39-.896.39" transform="translate(5 4)"/>
        <path fill="#4E3C2D" stroke="#4E3C2D" stroke-width=".2" d="M13.953 17.966h-.032c-.195-.018-.339-.19-.322-.385l1.442-16.317c.018-.195.19-.34.385-.321.194.017.338.189.321.383l-1.442 16.317c-.016.185-.17.323-.352.323" transform="translate(5 4)"/>
        <path fill="#FCED1E" d="M7.752 14.353c-.083 0-.166-.003-.25-.008-2.368-.135-4.184-2.173-4.048-4.541.13-2.274 2.015-4.056 4.291-4.056.083 0 .166.003.25.007 1.148.066 2.2.575 2.965 1.433.765.857 1.15 1.962 1.084 3.109-.13 2.274-2.016 4.056-4.292 4.056" transform="translate(5 4)"/>
        <path fill="#4E3C2D" stroke="#4E3C2D" stroke-width=".2" d="M7.746 5.441h0c-2.44 0-4.46 1.91-4.599 4.345-.07 1.23.342 2.413 1.161 3.332.82.918 1.948 1.463 3.177 1.534.089.005.179.008.268.008 2.438 0 4.458-1.909 4.597-4.346.07-1.229-.341-2.412-1.16-3.33-.82-.92-1.948-1.464-3.177-1.535-.09-.005-.18-.008-.267-.008m0 .614c.076 0 .154.002.232.007 2.202.126 3.886 2.015 3.76 4.217-.122 2.125-1.884 3.767-3.985 3.767-.078 0-.155-.003-.233-.007-2.203-.126-3.886-2.014-3.76-4.217.122-2.125 1.884-3.767 3.985-3.767" transform="translate(5 4)"/>
        <path fill="#4E3C2D" d="M7.262 12.921c-.74-.129-1.427-.543-1.854-1.195-.058-.09-.133-.292-.133-.292s.457.565 1.088.853c.63.288 1.465.605 2.535.004.095-.053.218-.024.277.066.058.09.03.204-.065.257-.573.322-1.23.415-1.848.307M7.332 9.104c-.04.693-.634 1.222-1.327 1.183-.694-.04-1.223-.634-1.184-1.327.04-.694.634-1.224 1.328-1.184.693.04 1.223.634 1.183 1.328" transform="translate(5 4)"/>
        <path fill="#FFF" d="M6.076 7.865c-.613 0-1.128.48-1.164 1.1-.037.642.455 1.194 1.098 1.231.311.018.61-.086.843-.294.232-.207.37-.493.388-.804.018-.311-.086-.61-.294-.843-.207-.233-.492-.37-.803-.388-.023-.002-.046-.002-.068-.002m.002 2.514c-.026 0-.052 0-.078-.002-.743-.043-1.312-.68-1.269-1.423.042-.742.683-1.31 1.423-1.269.36.021.69.18.929.45.24.268.36.614.34.974-.022.36-.18.69-.45.929-.248.221-.564.341-.895.341" transform="translate(5 4)"/>
        <path fill="#FFF" d="M6.25 8.594c-.018.328-.3.579-.628.56-.328-.019-.579-.3-.56-.628.019-.329.3-.58.628-.56.329.018.58.3.56.628" transform="translate(5 4)"/>
        <path fill="#4E3C2D" d="M10.644 9.207c-.032.564-.515.994-1.079.962-.564-.033-.994-.516-.962-1.08.033-.563.515-.994 1.08-.961.563.032.993.515.96 1.079" transform="translate(5 4)"/>
        <path fill="#FFF" d="M9.622 8.217c-.228 0-.446.082-.618.236-.186.165-.296.393-.31.642-.015.248.069.488.234.673.166.186.394.296.642.31.25.015.488-.069.673-.234.186-.166.296-.394.31-.642.015-.249-.069-.488-.234-.674-.166-.185-.394-.295-.642-.31l-.055-.001m.003 2.044c-.021 0-.043 0-.065-.002-.297-.017-.57-.148-.767-.37-.198-.222-.297-.507-.28-.804.017-.297.148-.57.37-.767.222-.198.51-.297.804-.28.297.016.57.148.767.37.198.222.297.507.28.804-.017.297-.148.57-.37.767-.206.183-.466.282-.739.282" transform="translate(5 4)"/>
        <path fill="#FFF" d="M9.767 8.79c-.016.268-.246.473-.515.458-.269-.016-.475-.246-.46-.515.016-.269.247-.474.516-.459.269.016.474.246.459.515" transform="translate(5 4)"/>
        <path fill="#D74253" d="M8.862 10.995c.288-.473.842-.631 1.238-.355.395.275.514.905.193 1.355-.64.895-2.268.955-2.268.955s.473-.353.584-.872c.11-.519.099-.83.253-1.083" transform="translate(5 4)"/>
        <path fill="#D12539" d="M9.537 12.588c.293-.139.567-.33.756-.594.322-.45.202-1.079-.193-1.354-.05-.036-.103-.063-.158-.085.035.122.042.392-.188.955-.545 1.34-1.729 1.44-1.729 1.44s.154-.006.384-.04c.325-.06.743-.16 1.128-.322" transform="translate(5 4)"/>
    </g>
</svg>
