<?xml version="1.0" encoding="UTF-8"?>
<svg width="21px" height="21px" viewBox="0 0 21 21" version="1.1" xmlns="http://www.w3.org/2000/svg" xmlns:xlink="http://www.w3.org/1999/xlink">
    <!-- Generator: sketchtool 44 (41411) - http://www.bohemiancoding.com/sketch -->
    <title>5AC24DA9-7DA3-452E-86CD-651EA372026C</title>
    <desc>Created with sketchtool.</desc>
    <defs>
        <polygon id="path-1" points="5.6249999e-05 20.8141593 20.847 20.8141593 20.847 0.151720354 5.6249999e-05 0.151720354 5.6249999e-05 20.8141593"></polygon>
    </defs>
    <g id="Symbols" stroke="none" stroke-width="1" fill="none" fill-rule="evenodd">
        <g id="sliced-/-common_icon_smile">
            <g id="-g-common_icon_smile">
                <g id="common_icon_smile">
                    <path d="M20.7532687,10.5171345 C20.7532687,16.1718956 16.1285812,20.7554708 10.4235187,20.7554708 C4.71845625,20.7554708 0.09376875,16.1718956 0.09376875,10.5171345 C0.09376875,4.86274513 4.71845625,0.27879823 10.4235187,0.27879823 C16.1285812,0.27879823 20.7532687,4.86274513 20.7532687,10.5171345" id="Fill-1" fill="#FFDA01"></path>
                    <g id="Group-5" transform="translate(0.000000, 0.034195)">
                        <mask id="mask-2" fill="white">
                            <use xlink:href="#path-1"></use>
                        </mask>
                        <g id="Clip-4"></g>
                        <path d="M10.4235562,0.337561062 C4.77943125,0.337561062 0.18755625,4.8888 0.18755625,10.482977 C0.18755625,16.077154 4.77943125,20.6283929 10.4235562,20.6283929 C16.0676812,20.6283929 20.6595562,16.077154 20.6595562,10.482977 C20.6595562,4.8888 16.0676812,0.337561062 10.4235562,0.337561062 M10.4235562,20.8142336 C4.67593125,20.8142336 5.6249999e-05,16.1795522 5.6249999e-05,10.482977 C5.6249999e-05,4.78621593 4.67593125,0.151720354 10.4235562,0.151720354 C16.1709937,0.151720354 20.8470562,4.78621593 20.8470562,10.482977 C20.8470562,16.1795522 16.1709937,20.8142336 10.4235562,20.8142336" id="Fill-3" fill="#FAAF40" mask="url(#mask-2)"></path>
                    </g>
                    <path d="M9.59116875,17.9333496 C7.66104375,17.7127566 5.82710625,16.752146 4.62973125,15.1474115 C4.46566875,14.9271903 4.24179375,14.4207743 4.24179375,14.4207743 C4.24179375,14.4207743 5.50591875,15.7995265 7.17635625,16.4427212 C8.84660625,17.0861018 11.0493562,17.7751991 13.7232937,16.0799602 C13.9586062,15.9312876 14.2820437,15.9887124 14.4461062,16.2089336 C14.6099812,16.428969 14.5527937,16.7278009 14.3180437,16.877031 C12.8862937,17.7841195 11.2049812,18.1177035 9.59116875,17.9333496" id="Fill-6" fill="#4E3C2D"></path>
                    <path d="M9.2063625,8.15565664 C9.2063625,9.93526726 7.75155,11.3772053 5.95605,11.3772053 C4.1599875,11.3772053 2.7053625,9.93526726 2.7053625,8.15565664 C2.7053625,6.37567434 4.1599875,4.93280708 5.95605,4.93280708 C7.75155,4.93262124 9.2063625,6.37530265 9.2063625,8.15565664" id="Fill-8" fill="#4E3C2D"></path>
                    <path d="M5.95633125,5.16514513 C4.29301875,5.16514513 2.93983125,6.5067292 2.93983125,8.15569381 C2.93983125,9.80391504 4.29283125,11.1449416 5.95595625,11.1449416 C7.61908125,11.1449416 8.97189375,9.80391504 8.97189375,8.15569381 C8.97189375,6.5067292 7.61926875,5.16514513 5.95633125,5.16514513 M5.95595625,11.6095434 C4.03445625,11.6095434 2.47108125,10.0600035 2.47108125,8.15569381 C2.47108125,6.25045487 4.03445625,4.70054336 5.95595625,4.70054336 C6.88708125,4.70054336 7.76214375,5.05995929 8.42026875,5.71244602 C9.07839375,6.36493274 9.44064375,7.23262301 9.44064375,8.15569381 C9.44064375,10.0600035 7.87745625,11.6095434 5.95595625,11.6095434" id="Fill-10" fill="#FFFFFF"></path>
                    <path d="M6.34021875,7.01048761 C6.34021875,7.85327522 5.65134375,8.53586814 4.80140625,8.53586814 C3.95090625,8.53586814 3.26203125,7.85327522 3.26203125,7.01048761 C3.26203125,6.1677 3.95090625,5.48492124 4.80140625,5.48492124 C5.65134375,5.48492124 6.34021875,6.1677 6.34021875,7.01048761" id="Fill-12" fill="#FFFFFF"></path>
                    <path d="M17.7720375,7.93406018 C17.7720375,9.38064425 16.5891,10.5531133 15.1296,10.5531133 C13.6691625,10.5531133 12.486975,9.38064425 12.486975,7.93406018 C12.486975,6.48673274 13.6691625,5.31389204 15.1296,5.31389204 C16.5891,5.31389204 17.7720375,6.48673274 17.7720375,7.93406018" id="Fill-14" fill="#4E3C2D"></path>
                    <path d="M15.1295438,5.54626726 C13.8014813,5.54626726 12.7212938,6.6174531 12.7212938,7.93413451 C12.7212938,9.25007257 13.8014813,10.3207009 15.1295438,10.3207009 C16.4574188,10.3207009 17.5376063,9.25007257 17.5376063,7.93413451 C17.5376063,6.6174531 16.4574188,5.54626726 15.1295438,5.54626726 M15.1295438,10.7853027 C13.5431063,10.7853027 12.2525438,9.5063469 12.2525438,7.93413451 C12.2525438,6.36117876 13.5431063,5.08166549 15.1295438,5.08166549 C16.7157938,5.08166549 18.0063563,6.36117876 18.0063563,7.93413451 C18.0063563,9.5063469 16.7157938,10.7853027 15.1295438,10.7853027" id="Fill-16" fill="#FFFFFF"></path>
                    <path d="M15.445875,6.99378053 C15.445875,7.6834354 14.8816875,8.24318761 14.18475,8.24318761 C13.4885625,8.24318761 12.9234375,7.6834354 12.9234375,6.99378053 C12.9234375,6.30282478 13.4885625,5.74363009 14.18475,5.74363009 C14.8816875,5.74363009 15.445875,6.30282478 15.445875,6.99378053" id="Fill-18" fill="#FFFFFF"></path>
                    <path d="M13.43775,12.7695425 C14.1114375,11.5190204 15.5184375,11.0311885 16.5796875,11.6797726 C17.6401875,12.3274274 18.0421875,13.9193389 17.278125,15.1180115 C15.7575,17.5042062 11.566125,17.8944717 11.566125,17.8944717 C11.566125,17.8944717 12.734625,16.9223389 12.9429375,15.5788965 C13.1521875,14.2356398 13.0760625,13.4381973 13.43775,12.7695425" id="Fill-20" fill="#D74253"></path>
                    <path d="M15.414375,16.7469796 C16.1503125,16.3492805 16.830375,15.8207496 17.278125,15.1179 C18.0421875,13.9194133 17.6401875,12.3275018 16.5796875,11.6796611 C16.4445,11.5971478 16.3035,11.5334044 16.1593125,11.4869442 C16.267875,11.7932097 16.3254375,12.4826788 15.816375,13.9576965 C14.6060625,17.4635814 11.566125,17.894546 11.566125,17.894546 C11.566125,17.894546 11.9611875,17.8575637 12.551625,17.7376965 C13.381125,17.5353159 14.4466875,17.2160416 15.414375,16.7469796" id="Fill-22" fill="#D12539"></path>
                </g>
            </g>
        </g>
    </g>
</svg>